PathFileType	4	(X/Y/Z)	C:/Users/beibeiliu/ov580/test_trc/capture2\sequence.7_training_dense_right.trc
DataRate	CameraRate	NumFrames	NumMarkers	Units	OrigDataRate	OrigDataStartFrame	OrigNumFrames
120	120	10	19	mm	120	201	400
Frame#	Time	ThumbCMC			ThumbMCP			ThumbIP			ThumbTip			IndexMCP			IndexPIP			IndexTip			MiddleMCP			MiddlePIP			MiddleTip			RingMCP			RingPIP			RingTip			PinkyMCP			PinkyPIP			PinkyTip			BackHand1			BackHand2			BackHand3	
		X0	Y0	Z0	X1	Y1	Z1	X2	Y2	Z2	X3	Y3	Z3	X4	Y4	Z4	X5	Y5	Z5	X6	Y6	Z6	X7	Y7	Z7	X8	Y8	Z8	X9	Y9	Z9	X10	Y10	Z10	X11	Y11	Z11	X12	Y12	Z12	X13	Y13	Z13	X14	Y14	Z14	X15	Y15	Z15	X16	Y16	Z16	X17	Y17	Z17	X18	Y18	Z18	
200	1.66667	120.242	79.733	-1.02906	107.313	97.6305	-12.8104	99.9042	125.727	-17.0286	92.4027	144.475	-20.9161	133.002	128.985	-50.919	115.117	112.659	-71.9657	115.674	86.4872	-52.8538	148.553	116.798	-66.8015	128.515	98.4774	-79.9482	127.219	73.2695	-51.2605	159.08	102.486	-72.7085	136.431	80.7584	-78.2374	137.454	65.3817	-46.6915	171.171	87.0822	-74.1515	143.308	70.3851	-74.6614	142.212	58.204	-45.8506	178.921	86.5726	-20.6687	175.736	56.5141	-1.07524	154.574	87.8096	1.73945	
201	1.675	115.012	77.5288	1.38236	101.575	99.4017	-12.1706	93.0036	119.295	-15.2859	84.4058	140.629	-20.8428	125.369	128.324	-51.3289	109.401	109.948	-73.558	109.994	84.6526	-53.4872	142.68	116.745	-67.1013	118.935	98.8053	-79.1906	122.181	72.7598	-48.6336	154.939	103.009	-72.4919	133.908	80.994	-81.5702	130.548	67.2883	-48.9256	165.752	89.4454	-73.2522	142.25	70.1256	-79.0313	140.706	58.3037	-47.3755	178.001	87.1423	-25.4247	172.39	64.4462	-2.42131	146.482	87.6353	1.79538	
202	1.68333	113.635	78.2145	-1.58627	97.9272	94.3153	-12.9481	86.2278	119.153	-16.2537	79.6003	138.385	-23.0841	115.554	128.054	-54.8188	102.715	107.363	-73.0622	107.814	81.2269	-53.1338	134.042	118.444	-64.0489	115.715	95.0529	-80.7463	115.638	73.5454	-52.7616	144.744	106.014	-73.2878	127.008	80.0715	-79.7465	128.719	65.7112	-51.585	159.853	90.8076	-76.568	136.692	71.7466	-77.9223	137.666	55.6431	-48.7244	173.957	89.6275	-23.5212	172.399	65.1129	-7.02087	145.405	89.0224	-0.521272	
203	1.69167	108.792	78.9231	-0.492919	92.5407	91.8531	-11.1004	81.6772	114.765	-17.4164	69.8026	133.708	-21.0642	109.092	124.939	-56.1797	94.7116	105.39	-72.9359	101.959	77.9704	-49.9146	127.024	117.62	-69.8674	110.74	94.2979	-80.7141	116.774	70.2608	-52.4805	141.675	104.514	-75.95	121.721	78.5686	-79.3057	128.871	64.8024	-49.4489	151.105	92.4035	-77.852	132.582	70.3782	-76.1909	134.258	56.0885	-50.6257	169.136	93.0261	-26.018	172.571	64.5372	-5.88199	142.665	92.538	-0.877791	
204	1.7	108.62	73.3081	-1.3674	91.7817	89.0878	-14.456	75.3895	109.984	-15.3447	63.2464	125.314	-19.9029	105.894	123.051	-59.0532	90.3664	100.514	-72.7663	103.431	75.293	-51.1612	123.295	115.481	-70.8673	108.895	90.6606	-82.4629	111.512	68.8021	-52.1917	133.267	104.529	-78.2609	120.319	75.2251	-80.7297	123.914	65.5942	-49.0201	148.785	92.6328	-77.7421	132.201	66.518	-78.9323	132.306	55.8705	-50.8937	164.906	92.6844	-29.0932	169.078	69.4974	-9.25465	139.83	90.7357	-2.77915	
205	1.70833	107.229	73.9582	-2.67124	86.7797	85.1125	-10.1971	71.5259	104.943	-15.1121	59.1648	122.507	-21.1102	100.981	119.437	-59.7826	87.4721	95.7372	-72.6048	97.7521	73.593	-55.1606	120.754	113.65	-69.4004	105.023	89.2774	-82.5955	113.248	66.5815	-50.3321	131.341	102.579	-81.3101	115.678	77.4902	-81.9577	121.155	65.3642	-51.3907	146.059	92.417	-76.6126	127.829	67.3659	-79.6921	130.472	55.6729	-48.6681	165.359	95.2914	-31.7972	165.93	70.7806	-7.62829	139.711	92.2329	-4.56414	
206	1.71667	105.828	73.3603	-2.44153	84.0865	84.0836	-13.3166	65.1068	102.566	-16.3288	51.6711	116.074	-20.0961	96.7516	116.921	-60.2535	84.1534	93.8974	-73.2098	97.9216	70.3571	-52.871	115.588	113.226	-69.5421	101.907	86.2197	-84.2393	109.189	65.0882	-52.2738	129.364	102.639	-78.5354	114.248	72.1155	-80.8925	124.216	62.9118	-49.0922	142.291	91.9172	-78.672	123.903	66.5672	-77.646	129.819	55.1733	-50.4526	157.771	97.4467	-30.6361	165.801	73.8306	-12.6647	136.458	91.4137	-7.29067	
207	1.725	104.688	67.8447	-1.50361	84.1039	80.2533	-14.823	62.172	97.1684	-14.4351	47.8356	109.006	-18.9986	90.1604	113.506	-58.8346	82.479	89.0087	-74.7873	94.867	68.2186	-54.5202	107.614	109.425	-73.1152	98.3951	84.1903	-84.1857	106.6	63.1714	-51.6028	125.768	101.113	-77.5369	112.297	69.9085	-80.3039	120.902	60.8142	-52.5578	139.811	91.2997	-77.7629	125.865	62.1429	-79.1321	129.167	55.0975	-49.8146	155.615	97.8177	-30.3991	166.657	72.5296	-9.72095	134.234	89.56	-3.86487	
208	1.73333	102.591	66.8879	-2.20811	81.2741	74.5104	-12.2888	61.1877	93.2225	-16.3548	43.1271	107.727	-19.1572	86.3493	111.267	-57.0054	76.3959	88.6241	-74.6422	94.1227	64.3796	-50.7482	102.803	108.62	-72.1839	96.476	81.6382	-85.684	107.161	61.0356	-55.8752	119.597	101.203	-77.5391	108.974	74.3402	-83.7823	119.664	60.1891	-53.3856	133.356	89.8329	-81.3379	125.637	63.3681	-82.3471	128.559	54.892	-51.1326	150.532	97.4444	-31.3004	161.627	77.4701	-11.2548	130.499	91.746	-8.02218	
209	1.74167	100.854	64.7099	-1.21373	80.1215	74.0515	-14.4275	60.9519	87.9581	-17.4985	40.7217	102.408	-21.0694	84.3586	108.58	-56.5789	77.0535	83.9305	-75.6925	92.7886	63.0788	-56.7476	103.471	107.51	-71.9089	95.2784	79.2465	-86.4423	103.822	60.9742	-55.3184	116.71	100.604	-79.4984	110.102	67.3743	-82.5615	121.583	60.9752	-50.9982	131.812	91.2707	-81.495	121.713	62.9006	-79.1478	129.148	55.5744	-50.6792	150.746	100.276	-35.4063	161.747	77.8173	-13.9221	129.763	90.6491	-9.61741	
